<svg xmlns="http://www.w3.org/2000/svg" width="980" height="440" viewBox="0 0 980 440" font-family="ui-sans-serif,system-ui,-apple-system,sans-serif">
<rect width="100%" height="100%" fill="#ffffff" rx="10"/>
<text x="28" y="34" font-size="17" font-weight="700" fill="#0f172a">Resident memory during ingest</text>
<text x="28" y="54" font-size="12" fill="#64748b">every engine on the same clock, minutes since its ingest started, lower is better</text>
<rect x="817.8" y="24" width="11" height="11" rx="3" fill="#059669"/><text x="833.8" y="34" font-size="12" font-weight="600" fill="#334155">Prometheus 2.55.1</text>
<rect x="679.6" y="24" width="11" height="11" rx="3" fill="#ea580c"/><text x="695.6" y="34" font-size="12" font-weight="600" fill="#334155">Prometheus 3.15.0</text>
<rect x="567.8" y="24" width="11" height="11" rx="3" fill="#2563eb"/><text x="583.8" y="34" font-size="12" font-weight="600" fill="#334155">Prom++ 0.8.15</text>
<line x1="78" y1="388.0" x2="884.0" y2="388.0" stroke="#e2e8f0"/><text x="68" y="392.0" font-size="11" fill="#64748b" text-anchor="end">0</text>
<line x1="78" y1="286.7" x2="884.0" y2="286.7" stroke="#e2e8f0"/><text x="68" y="290.7" font-size="11" fill="#64748b" text-anchor="end">500 MiB</text>
<line x1="78" y1="185.3" x2="884.0" y2="185.3" stroke="#e2e8f0"/><text x="68" y="189.3" font-size="11" fill="#64748b" text-anchor="end">1000 MiB</text>
<line x1="78" y1="84.0" x2="884.0" y2="84.0" stroke="#e2e8f0"/><text x="68" y="88.0" font-size="11" fill="#64748b" text-anchor="end">1.5 GiB</text>
<line x1="78.0" y1="84" x2="78.0" y2="388" stroke="#cbd5e1" stroke-dasharray="4 4"/><text x="84.0" y="98" font-size="11" fill="#64748b">50k series</text>
<line x1="247.9" y1="84" x2="247.9" y2="388" stroke="#cbd5e1" stroke-dasharray="4 4"/><text x="253.9" y="98" font-size="11" fill="#64748b">200k series</text>
<line x1="519.7" y1="84" x2="519.7" y2="388" stroke="#cbd5e1" stroke-dasharray="4 4"/><text x="525.7" y="98" font-size="11" fill="#64748b">500k series</text>
<text x="78.0" y="410" font-size="11" fill="#64748b" text-anchor="middle">0 min</text>
<text x="247.9" y="410" font-size="11" fill="#64748b" text-anchor="middle">5 min</text>
<text x="417.8" y="410" font-size="11" fill="#64748b" text-anchor="middle">10 min</text>
<text x="587.6" y="410" font-size="11" fill="#64748b" text-anchor="middle">15 min</text>
<text x="757.5" y="410" font-size="11" fill="#64748b" text-anchor="middle">20 min</text>
<polyline fill="none" stroke="#2563eb" stroke-width="2.2" stroke-linejoin="round" points="78.0,372.2 79.1,368.0 80.2,368.0 81.3,367.9 82.5,367.7 83.6,367.7 84.7,368.5 85.9,368.3 87.0,368.1 88.1,367.8 89.3,367.6 90.4,368.1 91.5,368.0 92.7,368.6 93.8,369.1 94.9,369.2 96.1,366.9 97.2,367.1 98.3,366.9 99.5,367.6 100.6,367.6 101.7,368.3 102.9,368.3 104.0,368.3 105.1,366.8 106.3,366.8 107.4,367.1 108.5,367.3 109.7,367.1 110.8,367.5 111.9,368.3 113.0,366.6 114.2,366.8 115.3,366.6 116.4,366.9 117.6,367.5 118.7,368.1 119.8,367.9 121.0,368.2 122.1,366.7 123.2,367.0 124.4,366.7 125.5,367.1 126.6,367.0 127.8,367.0 128.9,368.6 130.0,366.8 131.2,366.6 132.3,366.4 133.4,366.5 134.6,366.8 135.7,366.9 136.8,367.6 138.0,368.2 139.1,366.1 140.2,366.4 141.4,366.2 142.5,366.1 143.6,365.8 144.8,366.9 145.9,367.0 147.0,366.1 148.2,366.4 149.3,366.2 150.4,367.1 151.6,367.0 152.7,367.4 153.8,367.8 155.0,367.9 156.1,366.8 157.2,366.8 158.4,366.7 159.5,366.6 160.6,366.7 161.7,366.9 162.9,367.6 164.0,366.1 165.1,366.1 166.3,366.0 167.4,366.8 168.5,366.7 169.7,366.9 170.8,367.7 171.9,367.6 173.1,365.8 174.2,365.8 175.3,366.7 176.5,366.5 177.6,366.4 178.7,367.2 179.9,367.5 181.0,366.0 182.1,366.1 183.3,365.9 184.4,366.4 185.5,366.6 186.7,367.1 187.8,367.1 188.9,367.8 190.1,366.0 191.2,365.9 192.3,365.8 193.5,366.0 194.6,366.2 195.7,366.0 196.9,367.1 198.0,366.0 199.1,366.1 200.3,366.1 201.4,366.1 202.5,366.3 203.7,366.6 204.8,366.5 205.9,366.3 207.0,365.6 208.2,365.7 209.3,365.7 210.4,365.6 211.6,365.7 212.7,365.6 213.8,367.2 215.0,365.6 216.1,365.5 217.2,365.8 218.4,366.2 219.5,366.2 220.6,367.2 221.8,367.3 222.9,367.5 224.0,365.5 225.2,365.4 226.3,365.2 227.4,364.9 228.6,364.9 229.7,364.9 230.8,366.0 232.0,365.4 233.1,365.5 234.2,365.3 235.4,365.4 236.5,365.6 237.6,367.0 238.8,366.9 239.9,366.9 241.0,365.5 242.2,365.3 243.3,365.5 244.4,364.3 245.6,364.3 246.7,364.5 247.8,365.7 249.0,355.8 250.1,355.7 251.2,356.6 252.4,357.1 253.5,360.1 254.6,363.5 255.7,363.6 256.9,363.8 258.0,356.3 259.1,356.4 260.3,356.2 261.4,357.0 262.5,359.4 263.7,361.6 264.8,362.9 265.9,355.7 267.1,355.7 268.2,355.6 269.3,356.1 270.5,358.0 271.6,359.9 272.7,361.0 273.9,362.7 275.0,354.1 276.1,354.1 277.3,354.1 278.4,354.5 279.5,357.4 280.7,358.4 281.8,361.3 282.9,354.2 284.1,354.0 285.2,355.8 286.3,356.9 287.5,358.2 288.6,359.5 289.7,361.4 290.9,362.1 292.0,354.4 293.1,354.5 294.3,355.6 295.4,356.7 296.5,358.5 297.7,361.2 298.8,361.5 299.9,354.0 301.1,354.2 302.2,357.1 303.3,359.9 304.4,360.7 305.6,360.8 306.7,361.4 307.8,361.5 309.0,353.3 310.1,353.2 311.2,353.0 312.4,353.3 313.5,354.9 314.6,358.8 315.8,359.3 316.9,352.6 318.0,353.2 319.2,354.1 320.3,355.3 321.4,357.1 322.6,358.6 323.7,360.2 324.8,360.4 326.0,352.7 327.1,353.1 328.2,352.8 329.4,352.9 330.5,355.8 331.6,359.7 332.8,360.0 333.9,352.4 335.0,353.2 336.2,355.4 337.3,357.3 338.4,358.9 339.6,359.0 340.7,360.0 341.8,359.9 343.0,354.5 344.1,354.6 345.2,355.4 346.4,356.6 347.5,358.4 348.6,359.6 349.8,359.9 350.9,353.2 352.0,353.2 353.1,353.4 354.3,355.5 355.4,357.7 356.5,358.1 357.7,358.5 358.8,358.7 359.9,352.2 361.1,352.0 362.2,352.0 363.3,351.8 364.5,354.3 365.6,358.1 366.7,358.0 367.9,351.3 369.0,351.8 370.1,353.2 371.3,357.4 372.4,358.4 373.5,358.5 374.7,359.6 375.8,359.4 376.9,351.5 378.1,351.4 379.2,351.4 380.3,351.3 381.5,354.3 382.6,356.9 383.7,358.1 384.9,350.6 386.0,350.7 387.1,352.1 388.3,356.1 389.4,356.7 390.5,356.7 391.7,358.3 392.8,358.3 393.9,350.2 395.1,350.0 396.2,349.9 397.3,350.2 398.4,353.0 399.6,357.2 400.7,357.1 401.8,350.4 403.0,350.3 404.1,350.8 405.2,354.3 406.4,355.8 407.5,355.8 408.6,358.1 409.8,358.0 410.9,350.6 412.0,350.4 413.2,350.3 414.3,351.1 415.4,354.6 416.6,357.1 417.7,357.1 418.8,351.4 420.0,351.3 421.1,352.5 422.2,354.1 423.4,354.6 424.5,356.4 425.6,357.9 426.8,358.1 427.9,351.6 429.0,351.5 430.2,351.2 431.3,352.5 432.4,354.9 433.6,358.3 434.7,358.1 435.8,351.1 437.0,351.5 438.1,351.8 439.2,355.3 440.4,357.0 441.5,356.9 442.6,358.2 443.8,359.3 444.9,351.5 446.0,351.4 447.1,351.6 448.3,353.4 449.4,355.7 450.5,357.7 451.7,358.5 452.8,351.1 453.9,351.6 455.1,351.5 456.2,353.0 457.3,355.1 458.5,356.5 459.6,357.4 460.7,358.5 461.9,351.2 463.0,351.2 464.1,351.4 465.3,352.5 466.4,355.4 467.5,358.0 468.7,358.9 469.8,353.9 470.9,353.8 472.1,354.4 473.2,356.2 474.3,357.2 475.5,358.1 476.6,358.9 477.7,359.1 478.9,351.4 480.0,351.4 481.1,351.3 482.3,351.2 483.4,354.5 484.5,357.5 485.7,358.6 486.8,351.4 487.9,351.2 489.1,351.6 490.2,355.4 491.3,357.8 492.5,357.9 493.6,358.5 494.7,359.1 495.8,353.7 497.0,354.5 498.1,354.4 499.2,355.7 500.4,356.9 501.5,358.1 502.6,358.7 503.8,351.2 504.9,351.2 506.0,352.3 507.2,354.4 508.3,355.4 509.4,357.3 510.6,358.3 511.7,358.4 512.8,353.6 514.0,353.8 515.1,353.9 516.2,355.0 517.4,356.5 518.5,358.2 519.6,358.4 520.8,335.9 521.9,336.1 523.0,338.6 524.2,344.5 525.3,349.3 526.4,350.3 527.6,350.5 528.7,351.7 529.8,337.2 531.0,337.1 532.1,337.0 533.2,338.0 534.4,345.0 535.5,350.6 536.6,351.2 537.8,330.3 538.9,332.8 540.0,335.2 541.1,342.6 542.3,348.7 543.4,348.5 544.5,349.6 545.7,349.6 546.8,331.0 547.9,333.9 549.1,334.8 550.2,340.4 551.3,343.6 552.5,346.4 553.6,346.3 554.7,327.6 555.9,332.6 557.0,334.3 558.1,338.2 559.3,344.1 560.4,345.8 561.5,346.0 562.7,347.2 563.8,328.2 564.9,334.7 566.1,335.0 567.2,335.5 568.3,341.7 569.5,345.9 570.6,346.9 571.7,335.6 572.9,335.7 574.0,337.3 575.1,345.3 576.3,346.4 577.4,346.6 578.5,347.3 579.7,347.3 580.8,326.2 581.9,330.8 583.1,330.8 584.2,323.3 585.3,338.4 586.5,344.6 587.6,344.4 588.7,326.0 589.8,329.0 591.0,331.1 592.1,338.5 593.2,343.0 594.4,344.4 595.5,344.3 596.6,344.6 597.8,326.0 598.9,330.7 600.0,330.7 601.2,332.2 602.3,338.4 603.4,343.1 604.6,344.3 605.7,325.8 606.8,327.9 608.0,330.2 609.1,336.6 610.2,340.4 611.4,343.4 612.5,345.2 613.6,345.0 614.8,325.9 615.9,329.4 617.0,329.4 618.2,330.4 619.3,337.5 620.4,342.8 621.6,344.1 622.7,331.6 623.8,331.6 625.0,335.2 626.1,340.0 627.2,340.9 628.4,343.0 629.5,345.1 630.6,344.8 631.8,328.0 632.9,331.2 634.0,332.3 635.2,333.9 636.3,340.1 637.4,343.9 638.5,345.1 639.7,328.0 640.8,328.0 641.9,329.5 643.1,334.7 644.2,339.9 645.3,343.9 646.5,345.1 647.6,345.1 648.7,326.0 649.9,327.5 651.0,327.4 652.1,327.7 653.3,336.3 654.4,343.9 655.5,344.8 656.7,328.8 657.8,328.9 658.9,330.9 660.1,336.2 661.2,340.8 662.3,343.0 663.5,344.0 664.6,344.5 665.7,328.2 666.9,328.1 668.0,331.3 669.1,333.8 670.3,338.8 671.4,343.5 672.5,344.9 673.7,329.2 674.8,329.2 675.9,329.5 677.1,332.9 678.2,336.7 679.3,343.5 680.5,344.8 681.6,344.7 682.7,331.3 683.9,331.6 685.0,334.1 686.1,338.5 687.2,341.8 688.4,343.3 689.5,343.6 690.6,324.2 691.8,326.6 692.9,330.0 694.0,334.0 695.2,339.2 696.3,342.5 697.4,344.0 698.6,344.6 699.7,325.4 700.8,330.1 702.0,329.9 703.1,331.2 704.2,337.2 705.4,342.5 706.5,343.4 707.6,333.8 708.8,334.0 709.9,337.4 711.0,340.8 712.2,342.6 713.3,343.5 714.4,343.5 715.6,343.9 716.7,324.1 717.8,328.6 719.0,328.4 720.1,331.5 721.2,338.6 722.4,342.0 723.5,342.7 724.6,323.5 725.8,325.0 726.9,326.9 728.0,332.6 729.2,336.8 730.3,341.2 731.4,342.9 732.5,343.3 733.7,320.4 734.8,323.5 735.9,330.3 737.1,335.4 738.2,340.0 739.3,340.2 740.5,340.8 741.6,322.9 742.7,325.8 743.9,325.7 745.0,325.9 746.1,332.5 747.3,340.5 748.4,340.3 749.5,340.3 750.7,323.5 751.8,326.7 752.9,327.0 754.1,316.2 755.2,333.6 756.3,338.9 757.5,341.1 758.6,322.4 759.7,323.8 760.9,326.8 762.0,331.5 763.1,337.5 764.3,341.2 765.4,341.0 766.5,341.1 767.7,322.0 768.8,324.8 769.9,324.9 771.1,325.3 772.2,332.6 773.3,340.6 774.5,340.6 775.6,323.8 776.7,323.7 777.9,328.9 779.0,334.6 780.1,336.5 781.2,339.7 782.4,341.2 783.5,341.4 784.6,329.7 785.8,329.7 786.9,330.3 788.0,331.9 789.2,337.1 790.3,339.1 791.4,340.6 792.6,322.3 793.7,325.2 794.8,325.1 796.0,326.5 797.1,330.9 798.2,337.6 799.4,340.3 800.5,340.7 801.6,322.3 802.8,322.0 803.9,321.9 805.0,323.2 806.2,332.1 807.3,340.4 808.4,340.6 809.6,321.8 810.7,323.3 811.8,324.5 813.0,327.2 814.1,332.6 815.2,337.6 816.4,340.1 817.5,340.2 818.6,323.1 819.8,328.1 820.9,330.2 822.0,331.6 823.2,335.8 824.3,338.9 825.4,341.2 826.6,322.2 827.7,323.5 828.8,325.1 829.9,331.5 831.1,337.3 832.2,340.7 833.3,341.1 834.5,341.4 835.6,321.8 836.7,326.3 837.9,326.2 839.0,327.0 840.1,333.9 841.3,340.7 842.4,340.5 843.5,330.0 844.7,330.2 845.8,331.6 846.9,334.3 848.1,338.2 849.2,340.9 850.3,341.1 851.5,341.3 852.6,321.9 853.7,323.5 854.9,323.5 856.0,325.6 857.1,335.1 858.3,340.8 859.4,340.6 860.5,340.9 861.7,341.3 862.8,341.2 863.9,341.5 865.1,341.3 866.2,341.1 867.3,340.9 868.5,341.1 869.6,341.2 870.7,341.2 871.9,341.0 873.0,341.5 874.1,341.4 875.2,341.2 876.4,341.5 877.5,341.5 878.6,341.3 879.8,341.4"/>
<circle cx="879.8" cy="341.4" r="3.5" fill="#2563eb"/><text x="887.8" y="345.4" font-size="11" font-weight="600" fill="#2563eb">230 MiB</text>
<polyline fill="none" stroke="#ea580c" stroke-width="2.2" stroke-linejoin="round" points="78.0,368.2 79.1,354.7 80.2,354.3 81.3,353.8 82.5,353.8 83.6,353.8 84.7,353.8 85.9,353.8 87.0,353.8 88.1,348.7 89.3,348.7 90.4,348.7 91.5,348.7 92.7,348.7 93.8,348.7 94.9,354.8 96.1,348.8 97.2,348.8 98.3,353.5 99.5,353.5 100.6,353.5 101.7,353.5 102.9,353.3 104.0,353.1 105.1,349.0 106.3,348.9 107.4,348.9 108.5,348.9 109.7,348.9 110.8,348.9 111.9,348.9 113.0,350.6 114.2,350.6 115.3,350.6 116.4,350.5 117.6,350.3 118.7,350.2 119.8,350.2 121.0,350.2 122.1,349.9 123.2,349.9 124.4,353.8 125.5,353.8 126.6,353.8 127.8,353.5 128.9,353.2 130.0,350.4 131.2,350.4 132.3,350.4 133.4,350.4 134.6,350.3 135.7,350.1 136.8,349.9 138.0,349.7 139.1,354.5 140.2,354.5 141.4,354.5 142.5,354.5 143.6,354.3 144.8,354.1 145.9,353.9 147.0,349.7 148.2,354.9 149.3,354.9 150.4,354.9 151.6,354.6 152.7,354.4 153.8,354.2 155.0,354.1 156.1,349.9 157.2,354.1 158.4,354.1 159.5,354.1 160.6,354.0 161.7,353.8 162.9,353.6 164.0,347.6 165.1,347.6 166.3,347.6 167.4,347.6 168.5,347.6 169.7,347.6 170.8,347.6 171.9,347.6 173.1,348.3 174.2,348.3 175.3,348.3 176.5,353.1 177.6,353.1 178.7,353.1 179.9,353.1 181.0,352.4 182.1,352.4 183.3,352.4 184.4,352.3 185.5,352.1 186.7,351.8 187.8,351.6 188.9,351.4 190.1,348.7 191.2,348.7 192.3,354.7 193.5,354.7 194.6,354.5 195.7,354.2 196.9,354.0 198.0,347.4 199.1,347.3 200.3,347.3 201.4,347.3 202.5,347.3 203.7,347.3 204.8,347.3 205.9,347.3 207.1,345.1 208.2,345.1 209.3,345.1 210.4,345.1 211.6,345.1 212.7,345.1 213.8,345.1 215.0,345.9 216.1,347.8 217.2,347.8 218.4,347.8 219.5,347.8 220.6,347.8 221.8,347.8 222.9,347.8 224.0,349.7 225.2,351.9 226.3,351.9 227.4,351.9 228.6,351.9 229.7,351.9 230.8,351.8 232.0,347.3 233.1,347.3 234.2,347.3 235.4,347.3 236.5,347.3 237.6,347.3 238.8,347.3 239.9,347.3 241.0,346.6 242.2,346.6 243.3,346.6 244.4,346.6 245.6,346.6 246.7,346.6 247.8,346.6 249.0,334.5 250.1,313.4 251.2,313.4 252.4,313.4 253.5,313.4 254.6,313.4 255.8,313.3 256.9,313.3 258.0,290.0 259.1,290.0 260.3,290.0 261.4,290.0 262.5,290.0 263.7,290.0 264.8,290.0 265.9,289.9 267.1,289.9 268.2,289.9 269.3,289.9 270.5,310.9 271.6,313.1 272.7,313.1 273.9,313.1 275.0,293.8 276.1,293.8 277.3,293.8 278.4,293.8 279.5,293.8 280.7,293.8 281.8,293.8 282.9,293.2 284.1,291.9 285.2,291.9 286.3,291.9 287.5,291.9 288.6,291.9 289.7,291.9 290.9,313.5 292.0,292.1 293.1,292.1 294.3,292.1 295.4,292.1 296.5,292.1 297.7,292.1 298.8,292.1 299.9,289.6 301.1,289.6 302.2,289.6 303.3,289.6 304.4,289.6 305.6,289.6 306.7,289.6 307.8,289.6 309.0,288.9 310.1,288.9 311.2,288.9 312.4,288.9 313.5,288.9 314.6,288.9 315.8,288.9 316.9,288.9 318.0,288.9 319.2,288.9 320.3,288.9 321.4,288.9 322.6,314.4 323.7,314.4 324.8,314.4 326.0,292.2 327.1,292.2 328.2,292.2 329.4,292.2 330.5,292.2 331.6,292.2 332.8,292.2 333.9,291.6 335.0,289.9 336.2,289.9 337.3,289.9 338.4,289.9 339.6,289.9 340.7,289.9 341.8,289.9 343.0,289.9 344.1,289.9 345.2,289.9 346.4,289.9 347.5,299.9 348.6,313.1 349.8,313.1 350.9,293.2 352.0,291.6 353.1,291.6 354.3,291.6 355.4,291.6 356.5,291.6 357.7,291.6 358.8,291.6 359.9,290.8 361.1,290.8 362.2,290.8 363.3,290.8 364.5,290.8 365.6,290.8 366.7,290.8 367.9,290.5 369.0,288.2 370.1,288.2 371.3,288.2 372.4,288.2 373.5,311.4 374.7,311.4 375.8,311.4 376.9,288.1 378.1,288.1 379.2,288.1 380.3,288.1 381.5,288.1 382.6,288.1 383.7,288.1 384.9,286.3 386.0,286.2 387.1,286.2 388.3,286.2 389.4,286.2 390.5,286.2 391.7,286.2 392.8,286.2 393.9,283.0 395.1,283.0 396.2,283.0 397.3,283.0 398.5,283.0 399.6,283.0 400.7,283.0 401.8,283.0 403.0,283.0 404.1,283.0 405.2,283.0 406.4,283.0 407.5,283.0 408.6,283.0 409.8,283.0 410.9,284.6 412.0,284.6 413.2,284.6 414.3,284.6 415.4,284.6 416.6,284.6 417.7,284.6 418.8,284.6 420.0,284.6 421.1,284.6 422.2,284.6 423.4,284.6 424.5,284.6 425.6,284.6 426.8,284.6 427.9,285.5 429.0,285.5 430.2,285.5 431.3,285.5 432.4,285.5 433.6,285.5 434.7,285.5 435.8,283.5 437.0,282.9 438.1,282.9 439.2,282.9 440.4,282.9 441.5,282.9 442.6,282.9 443.8,282.9 444.9,287.2 446.0,287.2 447.1,287.2 448.3,287.2 449.4,287.2 450.5,287.2 451.7,287.2 452.8,286.0 453.9,286.0 455.1,286.0 456.2,286.0 457.3,286.0 458.5,286.0 459.6,286.0 460.7,286.0 461.9,281.2 463.0,281.2 464.1,281.2 465.3,281.2 466.4,281.2 467.5,281.2 468.7,281.2 469.8,281.1 470.9,288.9 472.1,288.9 473.2,288.9 474.3,288.9 475.5,288.9 476.6,288.9 477.7,288.9 478.9,284.5 480.0,284.5 481.1,284.5 482.3,284.5 483.4,284.5 484.5,284.5 485.7,284.5 486.8,279.6 487.9,287.1 489.1,287.1 490.2,287.1 491.3,287.1 492.5,287.1 493.6,287.1 494.7,287.1 495.8,279.8 497.0,279.8 498.1,279.8 499.2,279.8 500.4,279.8 501.5,279.8 502.6,279.8 503.8,279.7 504.9,286.6 506.0,286.6 507.2,286.6 508.3,286.6 509.4,286.6 510.6,286.6 511.7,286.6 512.8,286.7 514.0,289.4 515.1,289.3 516.2,289.3 517.4,289.3 518.5,289.3 519.6,289.3 520.8,279.3 521.9,225.2 523.0,225.1 524.2,225.1 525.3,225.1 526.4,225.1 527.6,225.1 528.7,225.1 529.8,168.7 531.0,167.2 532.1,167.2 533.2,167.2 534.4,167.2 535.5,167.2 536.6,167.2 537.8,166.9 538.9,164.4 540.0,164.4 541.2,164.4 542.3,164.4 543.4,164.4 544.5,164.4 545.7,164.4 546.8,161.8 547.9,161.8 549.1,161.8 550.2,161.8 551.3,161.8 552.5,161.8 553.6,161.8 554.7,161.8 555.9,161.8 557.0,161.8 558.1,161.8 559.3,161.8 560.4,161.8 561.5,161.8 562.7,161.8 563.8,161.8 564.9,161.8 566.1,161.8 567.2,161.8 568.3,161.8 569.5,161.8 570.6,161.8 571.7,161.8 572.9,161.8 574.0,161.8 575.1,161.8 576.3,161.8 577.4,161.8 578.5,161.8 579.7,161.8 580.8,161.8 581.9,161.8 583.1,161.8 584.2,161.8 585.3,161.8 586.5,161.8 587.6,161.8 588.7,161.8 589.9,161.8 591.0,161.8 592.1,161.8 593.2,161.8 594.4,161.8 595.5,161.8 596.6,161.8 597.8,161.8 598.9,161.8 600.0,161.8 601.2,161.8 602.3,161.8 603.4,161.8 604.6,161.8 605.7,161.8 606.8,161.8 608.0,161.8 609.1,161.8 610.2,161.8 611.4,161.8 612.5,161.8 613.6,161.8 614.8,161.8 615.9,161.8 617.0,161.8 618.2,161.8 619.3,161.8 620.4,161.8 621.6,161.8 622.7,161.8 623.8,161.8 625.0,161.8 626.1,161.8 627.2,161.8 628.4,161.8 629.5,161.8 630.6,161.8 631.8,161.8 632.9,161.8 634.0,161.8 635.2,161.8 636.3,161.8 637.4,161.8 638.5,161.8 639.7,161.8 640.8,161.7 641.9,161.7 643.1,161.7 644.2,161.7 645.3,161.7 646.5,161.7 647.6,161.7 648.7,158.5 649.9,158.5 651.0,158.5 652.1,158.5 653.3,158.5 654.4,158.5 655.5,158.5 656.7,158.5 657.8,158.4 658.9,158.4 660.1,158.4 661.2,158.4 662.3,158.4 663.5,158.4 664.6,158.4 665.7,153.7 666.9,178.6 668.0,178.6 669.1,178.6 670.3,178.6 671.4,178.2 672.5,178.2 673.7,174.9 674.8,153.2 675.9,153.2 677.1,153.2 678.2,153.2 679.3,153.2 680.5,153.2 681.6,153.2 682.7,152.3 683.9,160.4 685.0,165.9 686.1,165.9 687.2,165.9 688.4,165.9 689.5,165.9 690.6,164.9 691.8,152.5 692.9,152.5 694.0,152.5 695.2,152.5 696.3,152.5 697.4,152.5 698.6,152.5 699.7,159.9 700.8,159.9 702.0,159.9 703.1,159.9 704.2,159.9 705.4,159.9 706.5,159.9 707.6,159.9 708.8,168.5 709.9,168.5 711.0,168.5 712.2,168.5 713.3,168.5 714.4,168.5 715.6,168.5 716.7,147.6 717.8,161.9 719.0,161.9 720.1,161.9 721.2,161.9 722.4,161.9 723.5,161.9 724.6,157.2 725.8,156.0 726.9,157.0 728.0,157.0 729.2,157.0 730.3,157.0 731.4,157.0 732.6,157.0 733.7,143.5 734.8,160.0 735.9,160.0 737.1,160.0 738.2,160.0 739.3,160.0 740.5,160.0 741.6,153.1 742.7,151.9 743.9,177.6 745.0,177.6 746.1,177.6 747.3,177.6 748.4,177.6 749.5,177.6 750.7,139.8 751.8,156.9 752.9,156.9 754.1,156.9 755.2,156.9 756.3,156.9 757.5,156.9 758.6,143.8 759.7,160.6 760.9,167.2 762.0,167.2 763.1,167.2 764.3,167.2 765.4,167.2 766.5,167.2 767.7,141.7 768.8,151.9 769.9,151.9 771.1,151.9 772.2,151.9 773.3,151.9 774.5,151.9 775.6,142.9 776.7,133.1 777.9,133.1 779.0,133.1 780.1,133.1 781.2,167.5 782.4,171.4 783.5,171.4 784.6,133.3 785.8,154.7 786.9,154.7 788.0,154.7 789.2,154.7 790.3,154.7 791.4,154.7 792.6,146.3 793.7,133.0 794.8,160.0 796.0,175.7 797.1,175.7 798.2,175.7 799.4,175.7 800.5,175.7 801.6,132.0 802.8,156.7 803.9,156.7 805.0,156.7 806.2,156.7 807.3,156.7 808.4,156.7 809.6,145.8 810.7,135.4 811.8,151.0 813.0,151.0 814.1,151.0 815.2,151.0 816.4,151.0 817.5,151.0 818.6,122.8 819.8,122.8 820.9,122.8 822.0,122.8 823.2,122.8 824.3,122.8 825.4,122.8 826.6,141.3 827.7,123.0 828.8,123.0 829.9,123.0 831.1,123.0 832.2,123.0 833.3,123.0 834.5,123.0 835.6,110.1 836.7,110.0 837.9,110.0 839.0,110.0 840.1,110.0 841.3,110.0 842.4,110.0 843.5,110.0 844.7,109.5 845.8,109.5 846.9,109.5 848.1,109.5 849.2,109.5 850.3,109.5 851.5,109.5 852.6,110.2 853.7,143.6 854.9,150.9 856.0,150.9 857.1,150.9 858.3,150.9 859.4,150.9 860.5,150.9 861.7,150.9 862.8,150.9 863.9,150.9 865.1,150.9 866.2,150.9 867.3,150.9 868.5,150.9 869.6,150.9 870.7,150.9 871.9,150.9 873.0,150.9 874.1,150.9 875.3,150.9 876.4,150.9 877.5,150.9 878.6,150.9 879.8,150.9"/>
<circle cx="879.8" cy="150.9" r="3.5" fill="#ea580c"/><text x="887.8" y="154.9" font-size="11" font-weight="600" fill="#ea580c">1.1 GiB</text>
<polyline fill="none" stroke="#059669" stroke-width="2.2" stroke-linejoin="round" points="78.0,374.4 79.1,356.1 80.2,355.5 81.4,355.5 82.5,355.5 83.6,355.5 84.8,355.4 85.9,355.4 87.0,355.4 88.2,353.8 89.3,353.8 90.4,353.8 91.6,353.7 92.7,355.5 93.8,356.6 95.0,356.6 96.1,350.9 97.2,351.2 98.4,356.9 99.5,356.9 100.6,356.8 101.8,356.3 102.9,355.7 104.0,355.2 105.2,353.5 106.3,353.4 107.4,353.4 108.6,356.2 109.7,356.2 110.8,356.2 112.0,356.2 113.1,351.7 114.2,356.9 115.4,356.7 116.5,356.2 117.6,355.5 118.8,354.9 119.9,354.3 121.0,356.7 122.1,352.3 123.3,352.3 124.4,352.3 125.5,352.2 126.7,356.7 127.8,356.7 128.9,356.4 130.1,350.4 131.2,358.2 132.3,358.2 133.5,357.9 134.6,357.2 135.7,356.6 136.9,356.1 138.0,358.5 139.1,352.2 140.3,352.2 141.4,352.5 142.5,357.4 143.7,357.4 144.8,357.4 145.9,357.1 147.1,352.2 148.2,354.2 149.3,354.2 150.5,354.2 151.6,354.1 152.7,353.6 153.9,353.0 155.0,357.9 156.1,353.8 157.3,357.6 158.4,357.6 159.5,357.6 160.7,357.3 161.8,356.8 162.9,356.2 164.1,350.2 165.2,350.2 166.3,350.2 167.5,350.2 168.6,350.2 169.7,350.2 170.8,350.2 172.0,350.2 173.1,352.3 174.2,354.8 175.4,354.8 176.5,354.8 177.6,354.8 178.8,354.8 179.9,354.8 181.0,352.2 182.2,352.2 183.3,352.2 184.4,352.2 185.6,357.9 186.7,357.9 187.8,357.6 189.0,357.0 190.1,350.5 191.2,350.5 192.4,350.7 193.5,356.6 194.6,356.6 195.8,356.2 196.9,355.6 198.0,350.8 199.2,355.0 200.3,355.0 201.4,355.0 202.6,355.0 203.7,354.8 204.8,354.2 206.0,357.5 207.1,353.1 208.2,353.1 209.4,353.3 210.5,356.4 211.6,356.4 212.8,355.9 213.9,355.3 215.0,351.3 216.1,351.3 217.3,351.3 218.4,351.3 219.5,351.3 220.7,351.3 221.8,351.3 222.9,350.8 224.1,350.3 225.2,350.3 226.3,350.3 227.5,350.3 228.6,350.3 229.7,350.3 230.9,351.3 232.0,349.7 233.1,349.7 234.3,349.7 235.4,349.7 236.5,349.7 237.7,349.5 238.8,349.0 239.9,356.0 241.1,348.9 242.2,348.9 243.3,348.9 244.5,348.6 245.6,348.6 246.7,348.9 247.9,356.0 249.0,331.5 250.1,318.1 251.3,318.0 252.4,317.9 253.5,317.9 254.7,317.9 255.8,317.9 256.9,317.9 258.1,299.7 259.2,299.7 260.3,299.6 261.5,299.6 262.6,299.6 263.7,299.6 264.8,299.6 266.0,297.9 267.1,297.9 268.2,297.9 269.4,297.9 270.5,297.9 271.6,297.9 272.8,297.9 273.9,297.9 275.0,295.1 276.2,306.3 277.3,306.3 278.4,306.3 279.6,306.3 280.7,306.3 281.8,306.3 283.0,299.7 284.1,298.9 285.2,298.9 286.4,298.9 287.5,298.9 288.6,298.9 289.8,298.9 290.9,298.9 292.0,295.8 293.2,295.8 294.3,295.8 295.4,295.8 296.6,295.7 297.7,295.7 298.8,295.7 300.0,294.6 301.1,301.1 302.2,301.1 303.4,301.1 304.5,301.1 305.6,301.1 306.8,301.1 307.9,301.1 309.0,296.7 310.2,300.7 311.3,300.7 312.4,300.7 313.5,300.7 314.7,300.7 315.8,300.7 316.9,297.4 318.1,297.4 319.2,297.4 320.3,297.4 321.5,297.4 322.6,297.4 323.7,297.4 324.9,297.4 326.0,297.4 327.1,297.4 328.3,297.4 329.4,297.4 330.5,297.4 331.7,297.4 332.8,297.4 333.9,295.5 335.1,301.8 336.2,301.8 337.3,301.8 338.5,301.8 339.6,301.8 340.7,301.8 341.9,301.8 343.0,296.5 344.1,296.5 345.3,296.5 346.4,296.5 347.5,296.5 348.7,296.5 349.8,296.5 350.9,295.4 352.1,295.6 353.2,296.0 354.3,296.0 355.5,296.0 356.6,296.0 357.7,296.0 358.9,296.0 360.0,296.4 361.1,299.4 362.2,299.4 363.4,299.4 364.5,299.4 365.6,299.4 366.8,299.4 367.9,295.0 369.0,296.7 370.2,296.7 371.3,296.7 372.4,296.7 373.6,296.7 374.7,296.7 375.8,296.7 377.0,293.5 378.1,305.1 379.2,305.1 380.4,305.1 381.5,305.1 382.6,305.1 383.8,305.1 384.9,293.0 386.0,293.0 387.2,293.0 388.3,293.0 389.4,293.0 390.6,293.0 391.7,293.0 392.8,293.0 394.0,288.8 395.1,306.6 396.2,306.6 397.4,306.6 398.5,306.6 399.6,306.6 400.8,306.6 401.9,288.9 403.0,294.7 404.2,294.7 405.3,294.7 406.4,294.7 407.5,294.7 408.7,294.7 409.8,294.7 410.9,289.4 412.1,298.2 413.2,309.8 414.3,309.8 415.5,309.8 416.6,309.8 417.7,309.8 418.9,290.3 420.0,290.7 421.1,291.9 422.3,291.9 423.4,291.9 424.5,291.9 425.7,291.9 426.8,291.9 427.9,289.5 429.1,289.5 430.2,290.0 431.3,309.2 432.5,309.2 433.6,309.2 434.7,309.2 435.9,289.4 437.0,297.6 438.1,297.6 439.3,297.6 440.4,297.6 441.5,297.6 442.7,297.6 443.8,297.6 444.9,292.2 446.1,303.6 447.2,303.6 448.3,303.6 449.5,303.6 450.6,303.6 451.7,303.6 452.9,291.4 454.0,291.6 455.1,293.9 456.2,293.9 457.4,293.9 458.5,293.9 459.6,293.9 460.8,293.9 461.9,283.3 463.0,283.3 464.2,283.3 465.3,283.5 466.4,305.0 467.6,305.0 468.7,305.0 469.8,283.2 471.0,305.2 472.1,306.0 473.2,306.0 474.4,306.0 475.5,306.0 476.6,306.0 477.8,306.0 478.9,285.5 480.0,285.5 481.2,285.5 482.3,300.4 483.4,300.4 484.6,300.4 485.7,300.4 486.8,285.6 488.0,285.6 489.1,285.6 490.2,285.9 491.4,303.4 492.5,303.4 493.6,303.4 494.8,303.4 495.9,287.0 497.0,299.4 498.2,299.8 499.3,299.8 500.4,299.8 501.6,299.8 502.7,299.8 503.8,284.6 504.9,284.6 506.1,284.6 507.2,284.9 508.3,299.4 509.5,299.4 510.6,299.4 511.7,299.4 512.9,283.9 514.0,283.9 515.1,283.9 516.3,283.9 517.4,283.9 518.5,283.9 519.7,283.9 520.8,283.8 521.9,216.2 523.1,216.2 524.2,216.2 525.3,216.2 526.5,216.2 527.6,216.2 528.7,216.2 529.9,172.0 531.0,181.3 532.1,195.7 533.3,195.7 534.4,195.7 535.5,195.7 536.7,195.7 537.8,193.0 538.9,175.3 540.1,175.3 541.2,175.3 542.3,175.3 543.5,175.3 544.6,175.3 545.7,175.3 546.9,175.3 548.0,196.8 549.1,196.8 550.2,196.8 551.4,196.8 552.5,196.8 553.6,196.8 554.8,196.8 555.9,177.3 557.0,194.2 558.2,194.2 559.3,194.2 560.4,194.2 561.6,194.2 562.7,194.2 563.8,174.3 565.0,189.7 566.1,196.6 567.2,196.6 568.4,196.6 569.5,196.6 570.6,196.6 571.8,187.6 572.9,187.0 574.0,187.0 575.2,187.0 576.3,187.0 577.4,187.0 578.6,187.0 579.7,187.0 580.8,171.9 582.0,203.5 583.1,203.5 584.2,203.5 585.4,203.5 586.5,203.5 587.6,203.5 588.8,188.5 589.9,172.4 591.0,175.6 592.2,188.3 593.3,188.3 594.4,188.3 595.6,188.3 596.7,188.3 597.8,166.2 598.9,166.2 600.1,166.2 601.2,166.2 602.3,166.2 603.5,166.2 604.6,166.2 605.7,159.5 606.9,159.3 608.0,159.3 609.1,159.3 610.3,159.3 611.4,159.3 612.5,159.3 613.7,159.3 614.8,159.2 615.9,159.2 617.1,159.2 618.2,159.2 619.3,159.2 620.5,159.2 621.6,159.2 622.7,159.2 623.9,156.8 625.0,156.8 626.1,156.8 627.3,156.8 628.4,156.8 629.5,156.8 630.7,156.8 631.8,156.7 632.9,156.7 634.1,156.7 635.2,156.7 636.3,156.7 637.5,156.7 638.6,156.7 639.7,156.7 640.9,156.7 642.0,156.7 643.1,156.7 644.3,156.7 645.4,156.7 646.5,156.7 647.6,156.7 648.8,156.7 649.9,156.7 651.0,156.7 652.2,156.7 653.3,156.7 654.4,156.7 655.6,156.7 656.7,156.7 657.8,156.6 659.0,156.6 660.1,156.6 661.2,156.6 662.4,156.6 663.5,156.6 664.6,156.6 665.8,152.2 666.9,152.2 668.0,152.2 669.2,152.2 670.3,151.8 671.4,151.8 672.6,151.8 673.7,151.8 674.8,189.6 676.0,189.6 677.1,189.6 678.2,189.6 679.4,189.6 680.5,189.6 681.6,189.6 682.8,152.9 683.9,152.9 685.0,152.9 686.2,152.9 687.3,152.9 688.4,152.9 689.6,152.9 690.7,151.5 691.8,148.8 693.0,148.8 694.1,148.8 695.2,148.8 696.3,148.8 697.5,148.8 698.6,148.8 699.7,138.4 700.9,138.4 702.0,138.4 703.1,138.4 704.3,138.4 705.4,138.4 706.5,138.4 707.7,138.4 708.8,138.3 709.9,138.3 711.1,138.3 712.2,138.3 713.3,138.3 714.5,138.3 715.6,138.3 716.7,138.3 717.9,138.3 719.0,138.3 720.1,138.3 721.3,138.3 722.4,138.3 723.5,138.3 724.7,138.3 725.8,138.3 726.9,138.3 728.1,138.3 729.2,138.3 730.3,138.3 731.5,138.3 732.6,138.3 733.7,135.1 734.9,135.1 736.0,135.1 737.1,135.1 738.3,135.1 739.4,135.1 740.5,135.1 741.6,133.7 742.8,149.1 743.9,163.0 747.0,163.0 748.1,163.0 749.2,163.0 750.4,162.0 751.5,137.4 752.6,137.4 753.8,137.4 754.9,137.4 756.0,137.4 757.2,137.4 758.3,137.4 759.4,135.2 760.6,135.2 761.7,135.2 762.8,135.2 764.0,135.2 765.1,135.2 766.2,135.2 767.3,135.2 768.5,151.8 769.6,151.9 770.7,151.9 771.9,151.9 773.0,151.9 774.1,151.9 775.3,151.9 776.4,130.6 777.5,130.6 778.7,130.6 779.8,130.6 780.9,130.6 782.1,130.6 783.2,130.6 784.3,128.0 785.5,127.9 786.6,127.9 787.7,127.9 788.9,127.9 790.0,127.9 791.1,127.9 792.3,127.9 793.4,125.8 794.5,125.8 795.7,125.8 796.8,125.8 797.9,125.8 799.1,125.8 800.2,125.8 801.3,125.8 802.5,161.6 803.6,181.2 804.7,181.2 805.9,181.2 807.0,181.2 808.1,181.2 809.3,181.2 810.4,133.5 811.5,133.5 812.7,133.5 813.8,133.5 814.9,133.5 816.0,133.5 817.2,133.5 818.3,119.6 819.4,110.2 820.6,110.2 821.7,110.2 822.8,110.2 824.0,110.2 825.1,110.2 826.2,110.2 827.4,110.0 828.5,110.0 829.6,110.0 830.8,110.0 831.9,110.0 833.0,110.0 834.2,110.0 835.3,109.9 836.4,109.9 837.6,109.9 838.7,109.9 839.8,109.9 841.0,109.9 842.1,109.9 843.2,109.9 844.4,108.8 845.5,108.8 846.6,108.8 847.8,108.8 848.9,108.8 850.0,108.8 851.2,108.8 852.3,108.8 853.4,108.2 854.6,108.2 855.7,108.2 856.8,108.2 858.0,108.2 859.1,108.2 860.2,108.2 861.3,108.2 862.5,108.2 863.6,108.2 864.7,108.2 865.9,108.2 867.0,108.2 868.1,108.2 869.3,108.2 870.4,126.2 871.5,171.5 872.7,171.5 873.8,171.5 874.9,171.5 876.1,171.5 877.2,171.5 878.3,171.5 879.5,171.5 880.6,171.5 881.7,171.5 882.9,171.5 884.0,171.5"/>
<circle cx="884.0" cy="171.5" r="3.5" fill="#059669"/><text x="892.0" y="175.5" font-size="11" font-weight="600" fill="#059669">1.0 GiB</text>
</svg>
