<svg xmlns="http://www.w3.org/2000/svg" width="980" height="952" viewBox="0 0 980 952" font-family="ui-sans-serif,system-ui,-apple-system,sans-serif">
<rect width="100%" height="100%" fill="#ffffff" rx="10"/>
<text x="28" y="34" font-size="17" font-weight="700" fill="#0f172a">Median query latency, concurrency 16</text>
<text x="28" y="54" font-size="12" fill="#64748b">the 12 slowest queries, lower is better</text>
<rect x="817.8" y="24" width="11" height="11" rx="3" fill="#059669"/><text x="833.8" y="34" font-size="12" font-weight="600" fill="#334155">Prometheus 2.55.1</text>
<rect x="679.6" y="24" width="11" height="11" rx="3" fill="#ea580c"/><text x="695.6" y="34" font-size="12" font-weight="600" fill="#334155">Prometheus 3.15.0</text>
<rect x="567.8" y="24" width="11" height="11" rx="3" fill="#2563eb"/><text x="583.8" y="34" font-size="12" font-weight="600" fill="#334155">Prom++ 0.8.15</text>
<rect x="168.0" y="84.0" width="662.0" height="69.0" fill="#f8fafc"/>
<rect x="168.0" y="222.0" width="662.0" height="69.0" fill="#f8fafc"/>
<rect x="168.0" y="360.0" width="662.0" height="69.0" fill="#f8fafc"/>
<rect x="168.0" y="498.0" width="662.0" height="69.0" fill="#f8fafc"/>
<rect x="168.0" y="636.0" width="662.0" height="69.0" fill="#f8fafc"/>
<rect x="168.0" y="774.0" width="662.0" height="69.0" fill="#f8fafc"/>
<line x1="168.0" y1="84" x2="168.0" y2="912.0" stroke="#e2e8f0"/><text x="168.0" y="932.0" font-size="11" fill="#64748b" text-anchor="middle">0</text>
<line x1="388.7" y1="84" x2="388.7" y2="912.0" stroke="#e2e8f0"/><text x="388.7" y="932.0" font-size="11" fill="#64748b" text-anchor="middle">20 s</text>
<line x1="609.3" y1="84" x2="609.3" y2="912.0" stroke="#e2e8f0"/><text x="609.3" y="932.0" font-size="11" fill="#64748b" text-anchor="middle">40 s</text>
<line x1="830.0" y1="84" x2="830.0" y2="912.0" stroke="#e2e8f0"/><text x="830.0" y="932.0" font-size="11" fill="#64748b" text-anchor="middle">60 s</text>
<text x="156.0" y="122.5" font-size="12.5" font-weight="600" fill="#1e293b" text-anchor="end">range_quantile</text>
<rect x="168.0" y="93.0" width="487.2" height="14" rx="3" fill="#2563eb"/>
<text x="661.2" y="104.0" font-size="11" font-weight="600" fill="#334155" stroke="#ffffff" stroke-width="3" paint-order="stroke">44.2 s</text>
<rect x="168.0" y="110.0" width="602.3" height="14" rx="3" fill="#ea580c"/>
<text x="776.3" y="121.0" font-size="11" font-weight="600" fill="#334155" stroke="#ffffff" stroke-width="3" paint-order="stroke">54.6 s</text>
<rect x="168.0" y="127.0" width="609.5" height="14" rx="3" fill="#059669"/>
<text x="783.5" y="138.0" font-size="11" font-weight="600" fill="#334155" stroke="#ffffff" stroke-width="3" paint-order="stroke">55.2 s</text>
<text x="156.0" y="191.5" font-size="12.5" font-weight="600" fill="#1e293b" text-anchor="end">offset</text>
<rect x="168.0" y="162.0" width="156.6" height="14" rx="3" fill="#2563eb"/>
<text x="330.6" y="173.0" font-size="11" font-weight="600" fill="#334155" stroke="#ffffff" stroke-width="3" paint-order="stroke">14.2 s</text>
<rect x="168.0" y="179.0" width="173.4" height="14" rx="3" fill="#ea580c"/>
<text x="347.4" y="190.0" font-size="11" font-weight="600" fill="#334155" stroke="#ffffff" stroke-width="3" paint-order="stroke">15.7 s</text>
<rect x="168.0" y="196.0" width="193.3" height="14" rx="3" fill="#059669"/>
<text x="367.3" y="207.0" font-size="11" font-weight="600" fill="#334155" stroke="#ffffff" stroke-width="3" paint-order="stroke">17.5 s</text>
<text x="156.0" y="260.5" font-size="12.5" font-weight="600" fill="#1e293b" text-anchor="end">range_gauge</text>
<rect x="168.0" y="231.0" width="152.1" height="14" rx="3" fill="#2563eb"/>
<text x="326.1" y="242.0" font-size="11" font-weight="600" fill="#334155" stroke="#ffffff" stroke-width="3" paint-order="stroke">13.8 s</text>
<rect x="168.0" y="248.0" width="189.3" height="14" rx="3" fill="#ea580c"/>
<text x="363.3" y="259.0" font-size="11" font-weight="600" fill="#334155" stroke="#ffffff" stroke-width="3" paint-order="stroke">17.2 s</text>
<rect x="168.0" y="265.0" width="190.3" height="14" rx="3" fill="#059669"/>
<text x="364.3" y="276.0" font-size="11" font-weight="600" fill="#334155" stroke="#ffffff" stroke-width="3" paint-order="stroke">17.2 s</text>
<text x="156.0" y="329.5" font-size="12.5" font-weight="600" fill="#1e293b" text-anchor="end">last_over_time_all</text>
<rect x="168.0" y="300.0" width="128.9" height="14" rx="3" fill="#2563eb"/>
<text x="302.9" y="311.0" font-size="11" font-weight="600" fill="#334155" stroke="#ffffff" stroke-width="3" paint-order="stroke">11.7 s</text>
<rect x="168.0" y="317.0" width="181.4" height="14" rx="3" fill="#ea580c"/>
<text x="355.4" y="328.0" font-size="11" font-weight="600" fill="#334155" stroke="#ffffff" stroke-width="3" paint-order="stroke">16.4 s</text>
<rect x="168.0" y="334.0" width="187.8" height="14" rx="3" fill="#059669"/>
<text x="361.8" y="345.0" font-size="11" font-weight="600" fill="#334155" stroke="#ffffff" stroke-width="3" paint-order="stroke">17.0 s</text>
<text x="156.0" y="398.5" font-size="12.5" font-weight="600" fill="#1e293b" text-anchor="end">regex_name</text>
<rect x="168.0" y="369.0" width="75.8" height="14" rx="3" fill="#2563eb"/>
<text x="249.8" y="380.0" font-size="11" font-weight="600" fill="#334155" stroke="#ffffff" stroke-width="3" paint-order="stroke">6.9 s</text>
<rect x="168.0" y="386.0" width="90.3" height="14" rx="3" fill="#ea580c"/>
<text x="264.3" y="397.0" font-size="11" font-weight="600" fill="#334155" stroke="#ffffff" stroke-width="3" paint-order="stroke">8.2 s</text>
<rect x="168.0" y="403.0" width="118.1" height="14" rx="3" fill="#059669"/>
<text x="292.1" y="414.0" font-size="11" font-weight="600" fill="#334155" stroke="#ffffff" stroke-width="3" paint-order="stroke">10.7 s</text>
<text x="156.0" y="467.5" font-size="12.5" font-weight="600" fill="#1e293b" text-anchor="end">range_subquery</text>
<rect x="168.0" y="438.0" width="90.8" height="14" rx="3" fill="#2563eb"/>
<text x="264.8" y="449.0" font-size="11" font-weight="600" fill="#334155" stroke="#ffffff" stroke-width="3" paint-order="stroke">8.2 s</text>
<rect x="168.0" y="455.0" width="117.9" height="14" rx="3" fill="#ea580c"/>
<text x="291.9" y="466.0" font-size="11" font-weight="600" fill="#334155" stroke="#ffffff" stroke-width="3" paint-order="stroke">10.7 s</text>
<rect x="168.0" y="472.0" width="95.7" height="14" rx="3" fill="#059669"/>
<text x="269.7" y="483.0" font-size="11" font-weight="600" fill="#334155" stroke="#ffffff" stroke-width="3" paint-order="stroke">8.7 s</text>
<text x="156.0" y="536.5" font-size="12.5" font-weight="600" fill="#1e293b" text-anchor="end">quantile_over_time</text>
<rect x="168.0" y="507.0" width="69.0" height="14" rx="3" fill="#2563eb"/>
<text x="243.0" y="518.0" font-size="11" font-weight="600" fill="#334155" stroke="#ffffff" stroke-width="3" paint-order="stroke">6.3 s</text>
<rect x="168.0" y="524.0" width="74.5" height="14" rx="3" fill="#ea580c"/>
<text x="248.5" y="535.0" font-size="11" font-weight="600" fill="#334155" stroke="#ffffff" stroke-width="3" paint-order="stroke">6.8 s</text>
<rect x="168.0" y="541.0" width="82.2" height="14" rx="3" fill="#059669"/>
<text x="256.2" y="552.0" font-size="11" font-weight="600" fill="#334155" stroke="#ffffff" stroke-width="3" paint-order="stroke">7.4 s</text>
<text x="156.0" y="605.5" font-size="12.5" font-weight="600" fill="#1e293b" text-anchor="end">rate_histogram</text>
<rect x="168.0" y="576.0" width="62.0" height="14" rx="3" fill="#2563eb"/>
<text x="236.0" y="587.0" font-size="11" font-weight="600" fill="#334155" stroke="#ffffff" stroke-width="3" paint-order="stroke">5.6 s</text>
<rect x="168.0" y="593.0" width="75.0" height="14" rx="3" fill="#ea580c"/>
<text x="249.0" y="604.0" font-size="11" font-weight="600" fill="#334155" stroke="#ffffff" stroke-width="3" paint-order="stroke">6.8 s</text>
<rect x="168.0" y="610.0" width="80.3" height="14" rx="3" fill="#059669"/>
<text x="254.3" y="621.0" font-size="11" font-weight="600" fill="#334155" stroke="#ffffff" stroke-width="3" paint-order="stroke">7.3 s</text>
<text x="156.0" y="674.5" font-size="12.5" font-weight="600" fill="#1e293b" text-anchor="end">range_sum_rate</text>
<rect x="168.0" y="645.0" width="51.0" height="14" rx="3" fill="#2563eb"/>
<text x="225.0" y="656.0" font-size="11" font-weight="600" fill="#334155" stroke="#ffffff" stroke-width="3" paint-order="stroke">4.6 s</text>
<rect x="168.0" y="662.0" width="77.2" height="14" rx="3" fill="#ea580c"/>
<text x="251.2" y="673.0" font-size="11" font-weight="600" fill="#334155" stroke="#ffffff" stroke-width="3" paint-order="stroke">7.0 s</text>
<rect x="168.0" y="679.0" width="73.7" height="14" rx="3" fill="#059669"/>
<text x="247.7" y="690.0" font-size="11" font-weight="600" fill="#334155" stroke="#ffffff" stroke-width="3" paint-order="stroke">6.7 s</text>
<text x="156.0" y="743.5" font-size="12.5" font-weight="600" fill="#1e293b" text-anchor="end">alerting_shape</text>
<rect x="168.0" y="714.0" width="57.5" height="14" rx="3" fill="#2563eb"/>
<text x="231.5" y="725.0" font-size="11" font-weight="600" fill="#334155" stroke="#ffffff" stroke-width="3" paint-order="stroke">5.2 s</text>
<rect x="168.0" y="731.0" width="75.1" height="14" rx="3" fill="#ea580c"/>
<text x="249.1" y="742.0" font-size="11" font-weight="600" fill="#334155" stroke="#ffffff" stroke-width="3" paint-order="stroke">6.8 s</text>
<rect x="168.0" y="748.0" width="68.3" height="14" rx="3" fill="#059669"/>
<text x="242.3" y="759.0" font-size="11" font-weight="600" fill="#334155" stroke="#ffffff" stroke-width="3" paint-order="stroke">6.2 s</text>
<text x="156.0" y="812.5" font-size="12.5" font-weight="600" fill="#1e293b" text-anchor="end">recording_rule_shape</text>
<rect x="168.0" y="783.0" width="55.0" height="14" rx="3" fill="#2563eb"/>
<text x="229.0" y="794.0" font-size="11" font-weight="600" fill="#334155" stroke="#ffffff" stroke-width="3" paint-order="stroke">5.0 s</text>
<rect x="168.0" y="800.0" width="73.8" height="14" rx="3" fill="#ea580c"/>
<text x="247.8" y="811.0" font-size="11" font-weight="600" fill="#334155" stroke="#ffffff" stroke-width="3" paint-order="stroke">6.7 s</text>
<rect x="168.0" y="817.0" width="66.4" height="14" rx="3" fill="#059669"/>
<text x="240.4" y="828.0" font-size="11" font-weight="600" fill="#334155" stroke="#ffffff" stroke-width="3" paint-order="stroke">6.0 s</text>
<text x="156.0" y="881.5" font-size="12.5" font-weight="600" fill="#1e293b" text-anchor="end">group_left_many</text>
<rect x="168.0" y="852.0" width="60.5" height="14" rx="3" fill="#2563eb"/>
<text x="234.5" y="863.0" font-size="11" font-weight="600" fill="#334155" stroke="#ffffff" stroke-width="3" paint-order="stroke">5.5 s</text>
<rect x="168.0" y="869.0" width="68.2" height="14" rx="3" fill="#ea580c"/>
<text x="242.2" y="880.0" font-size="11" font-weight="600" fill="#334155" stroke="#ffffff" stroke-width="3" paint-order="stroke">6.2 s</text>
<rect x="168.0" y="886.0" width="65.8" height="14" rx="3" fill="#059669"/>
<text x="239.8" y="897.0" font-size="11" font-weight="600" fill="#334155" stroke="#ffffff" stroke-width="3" paint-order="stroke">6.0 s</text>
</svg>
